<?xml version="1.0" ?><svg id="katman_1" style="enable-background:new 0 0 512 512;" version="1.1" viewBox="0 0 512 512" xml:space="preserve" xmlns="http://www.w3.org/2000/svg" xmlns:xlink="http://www.w3.org/1999/xlink"><style type="text/css">
	.st0{fill:#E84B3C;}
	.st1{fill:#C0392A;}
	.st2{fill:#FFFFFF;}
</style><g><g><circle class="st0" cx="256" cy="256" r="250"/></g><path class="st1" d="M505.2,275.7c-0.1-0.1-0.2-0.3-0.3-0.4c-40.6-40.5-81-81.2-121.7-121.6c-19.5-19.4-43.3-27.4-70.7-23.9   c-18,2.3-33.5,10.1-46.6,22.7c-2.7,2.6-5.3,5.3-8,8c-0.7,0.7-1.2,0.8-1.9,0c-2.4-2.5-4.8-4.9-7.3-7.3c-22.5-21.3-49-28.8-79.1-21.6   c-37.1,8.9-62.9,42.5-62.9,80.6c0,4.2,0.3,8.5,0.9,12.7c2.7,17.8,10.3,33.2,23,45.9c72.2,72.3,144.4,144.5,216.7,216.7   c0.4,0.4,0.7,0.7,1,1C434.9,454,497.7,372.6,505.2,275.7z"/><path class="st2" d="M382.6,153.5c-15.8-16.2-36.9-25.1-59.5-25.1c-22.2,0-43.1,8.7-58.8,24.4l-8.1,8.1l-8.1-8.1   c-15.7-15.7-36.6-24.4-58.8-24.4c-22.2,0-43.1,8.7-58.8,24.4c-15.7,15.7-24.4,36.6-24.4,58.8c0,22.2,8.7,43.1,24.4,58.8l104,104   c6,6,13.9,9,21.8,9c7.9,0,15.8-3,21.8-9l103.3-103.3C413.7,238.7,414.3,186,382.6,153.5z M370.2,260.2c-5,5.9-10.6,11.4-16.1,16.8   c-28.5,28.2-56.9,56.3-85.4,84.5c-3.5,3.5-7.6,7.2-12.6,7.3c-5.1,0-9.3-3.8-12.9-7.4c-28.9-28.7-57.8-57.4-86.7-86   c-11.6-11.5-23.4-23.3-29.9-38.3c-22.1-50.5,26-101.8,77.6-91.1c21.3,4.4,40.3,18.8,50.4,38.2c14.3-17,31.7-32.7,53.2-38.1   c24.1-6,51.3,2.8,67.2,21.9s19.9,47.4,9.8,70.1C381.2,246.2,376.1,253.4,370.2,260.2z"/></g></svg>